<?xml version="1.0"?>
<svg xmlns="http://www.w3.org/2000/svg" xmlns:xlink="http://www.w3.org/1999/xlink" version="1.1" id="Capa_1" x="0px" y="0px" viewBox="0 0 512.001 512.001" style="enable-background:new 0 0 512.001 512.001;" xml:space="preserve" width="512px" height="512px" class=""><g><g>
	<path d="M265.949,306.781c0-75.789,61.659-137.447,137.447-137.447c39.388,0,74.954,16.659,100.037,43.294   c6.225-16.335,9.161-33.905,8.468-51.773c-1.282-33.029-14.868-64.098-38.253-87.483c-51.055-51.055-134.127-51.055-185.182,0   L256,105.838l-32.466-32.466C198.802,48.64,165.919,35.02,130.943,35.02S63.084,48.64,38.353,73.372S0,130.987,0,165.963   s13.621,67.859,38.314,92.553l216.906,218.465l62.571-62.747C286.218,389.028,265.949,350.23,265.949,306.781z" data-original="#000000" class="active-path" data-old_color="#000000" fill="#FFFFFF"/>
	<path d="M403.396,198.334c-59.798,0-108.447,48.649-108.447,108.447c0,59.798,48.649,108.448,108.447,108.448   c59.798,0,108.448-48.649,108.448-108.448C511.844,246.983,463.194,198.334,403.396,198.334z M444.167,321.781h-25.771v25.771h-30   v-25.771h-25.771v-30h25.771V266.01h30v25.771h25.771V321.781z" data-original="#000000" class="active-path" data-old_color="#000000" fill="#FFFFFF"/>
</g><style id="stylish-15" class="stylish active-path" type="text/css">body
{
	background-color:#333;
    color:white;
}


main
{
	background-color:#363636;
}


section.content
{
background-color:#111;
}

div.widget__body
{
	background:black !important;
    color:white !important;
}
</style></g> </svg>
